# xmcd CD database file
#
# Track frame offsets:
#	150
#	23202
#	40547
#	61565
#	81302
#	99050
#	119477
#	142392
#	162825
#	181390
#	203785
#	223847
#
# Disc length: 3155 seconds
#
# Revision: 2
# Processed by: cddbd v1.5PL3 Copyright (c) Steve Scherf et al.
# Submitted via: CDex 1.50beta8a
#
DISCID=a20c510c
DTITLE=望月久代 - 静夏-Silent Summer-
DYEAR=2002
DGENRE=
TTITLE0=DoYo-NaMi
TTITLE1=渋滞Labyrinth
TTITLE2=Summer Carnival
TTITLE3=Angel Smile
TTITLE4=Strawberry Time
TTITLE5=So Cool
TTITLE6=帰省
TTITLE7=Green Grass
TTITLE8=ブラザー戦隊あっぷるず
TTITLE9=Mermaid Song
TTITLE10=静夏-Silent Summer-
TTITLE11=おやすみ
EXTD=YEAR: 2002
EXTT0=
EXTT1=
EXTT2=
EXTT3=
EXTT4=
EXTT5=
EXTT6=
EXTT7=
EXTT8=
EXTT9=
EXTT10=
EXTT11=
PLAYORDER=
